<?xml version="1.0"?>
<svg width="580" height="400" xmlns="http://www.w3.org/2000/svg">
 <!-- Created with Method Draw - http://github.com/duopixel/Method-Draw/ -->
 <g>
  <title>background</title>
  <rect fill="#fff" id="canvas_background" height="402" width="582" y="-1" x="-1"/>
  <g display="none" overflow="visible" y="0" x="0" height="100%" width="100%" id="canvasGrid">
   <rect fill="url(#gridpattern)" stroke-width="0" y="0" x="0" height="100%" width="100%"/>
  </g>
 </g>
 <g>
  <title>Layer 1</title>
  <path transform="rotate(25.5752 201.527 242.88)" id="svg_1" d="m254.527496,208.168213c-2.965851,-5.28183 -9.148193,-4.328156 -13.749298,-5.528046c-3.819763,-1.766617 -9.671112,-3.459595 -12.388947,1.592255c-3.628204,4.715027 -6.847107,9.799423 -9.712128,15.111954c-6.009369,7.343018 -13.305634,13.231354 -20.639709,18.786575c-6.178101,3.385452 -12.942017,6.025345 -17.942505,11.540756c-9.497742,6.794846 -21.066238,8.034012 -31.567413,12.017014c1.861664,0.721741 10.101913,-1.901306 4.563339,0.9711c-4.12178,1.513641 1.621399,2.920563 3.454834,1.910736c-1.447113,1.726929 -1.84549,1.868225 -0.064941,1.842133c-3.235184,2.0159 7.183746,-0.626495 1.445984,2.195251c-2.496857,0.814728 -8.639343,8.330353 -3.00769,4.944916c5.236359,-2.430481 10.81813,-3.65271 16.264664,-5.323303c-4.073822,4.670929 -9.879929,7.592163 -12.678818,13.514832c0.062592,1.528931 4.333664,-3.105927 6.139053,-3.865204c10.268555,-6.92099 21.026276,-13.335663 32.593536,-17.072296c1.580231,0.424255 1.888794,5.142426 4.96814,2.730499c0.269531,3.005768 7.032196,-4.715546 5.266754,1.306641c2.929016,-5.156799 -0.00531,5.598053 2.705017,7.225983c1.384338,2.0383 7.065643,4.85199 2.434235,5.550354c-2.046875,3.415588 2.869263,-1.370697 3.942963,1.829895c4.012421,1.625 1.089935,3.291382 -1.814056,2.307434c-2.226471,-0.331787 -2.685303,2.930969 -0.43515,0.906616c2.686615,2.053833 6.953186,1.316345 10.378906,2.199432c3.423706,0.316833 7.574432,-3.909943 8.871277,-2.885071c-3.155273,-2.525909 -7.723999,0.557709 -11.187439,-1.391754c-0.730621,-2.620819 8.118805,0.938477 8.137299,-3.491669c4.144257,-0.43042 -3.48642,-1.027283 -4.967133,0.017426c-5.100098,0.30426 -7.717346,-4.983612 -11.307465,-7.986237c0.108185,-6.231262 4.207153,-11.5849 8.496582,-15.104218c5.595978,-3.757843 11.33786,-8.59906 12.922363,-16.099457c1.643097,-6.680283 2.557709,-13.563934 3.304596,-20.413773c1.011047,-4.419815 3.915955,-8.50177 8.371124,-8.172119c2.402771,-0.373184 4.814362,-0.683273 7.202026,-1.168655l0,0z" stroke-width="1.5" stroke="#000" fill="#fff"/>
 </g>
 <g>
  <line stroke-linecap="null" stroke-linejoin="null" id="MP_bird_1_u" y2="259" x2="128" y1="218.59091" x1="128" fill-opacity="null" stroke-opacity="null" stroke-width="1.5" stroke="#000" fill="none"/>
  <line stroke-linecap="null" stroke-linejoin="null" id="MP_bird_1_r" y2="259" x2="163" y1="259" x1="128" fill-opacity="null" stroke-opacity="null" stroke-width="1.5" stroke="#000" fill="none"/>
 </g>
</svg>