<?xml version='1.0' encoding='ASCII' standalone='yes'?>
<svg xmlns="http://www.w3.org/2000/svg" version="1.1" width="1500px" height="1500px" viewbox="0 0 1500px 1500px">
  <g>
    <g transform=" translate(0, 0) scale(1.18035982806) rotate(0.000000 174.500000 154.000000)"><!-- Created with Method Draw - http://github.com/duopixel/Method-Draw/ -->
 <g>
  <title>background</title>
  <rect fill="#fff" id="canvas_background" height="402" width="582" y="-1" x="-1"/>
  <g display="none" overflow="visible" y="0" x="0" height="100%" width="100%" id="canvasGrid">
   <rect fill="url(#gridpattern)" stroke-width="0" y="0" x="0" height="100%" width="100%"/>
  </g>
 </g>
 <g>
  <title>Layer 1</title>
  <path transform="rotate(50.4073 250.758 136.767)" id="svg_4" d="m254.983032,98.767426l-34.225159,65.203491l22.195129,-12.336548l3.588867,23.133057l34.216003,-65.212784l-25.774841,-10.787216zm5.239563,19.960197c-1.697388,-0.708557 -2.426147,-2.514153 -1.632385,-4.037971c0.802002,-1.516846 2.822571,-2.167419 4.519958,-1.458862s2.435303,2.521126 1.633301,4.037971s-2.814331,2.175537 -4.520874,1.458862z" stroke-width="1.5" stroke="#000" fill="#fff"/>
  <line stroke-linecap="null" stroke-linejoin="null" id="svg_5" y2="139.5" x2="215.5" y1="146.5" x1="180.5" fill-opacity="null" stroke-opacity="null" stroke-width="1.5" stroke="#000" fill="none"/>
  <line stroke-linecap="null" stroke-linejoin="null" id="svg_6" y2="153.5" x2="206.5" y1="160.5" x1="171.5" fill-opacity="null" stroke-opacity="null" stroke-width="1.5" stroke="#000" fill="none"/>
  <line stroke-linecap="null" stroke-linejoin="null" id="MP_flying-thing_1_u" y2="115.5" x2="174.5" y1="154" x1="174.5" fill-opacity="null" stroke-opacity="null" stroke-width="3.5" stroke="#000" fill="none"/>
  <line stroke-linecap="null" stroke-linejoin="null" id="MP_flying-thing_1_r" y2="154" x2="199" y1="154" x1="175" fill-opacity="null" stroke-opacity="null" stroke-width="1.5" stroke="#000" fill="none"/>
 </g>
</g>
    <g transform=" translate(155.564919422, -112.065588119) scale(0.81964017194) rotate(45.000000 61.500000 358.500000)"><!-- Created with Method Draw - http://github.com/duopixel/Method-Draw/ -->

 <g>
  <title>background</title>
  <g id="canvasGrid" display="none">
   <rect id="svg_2" width="100%" height="100%" x="0" y="0" stroke-width="0" fill="url(#gridpattern)"/>
  </g>
 </g>
 <g>
  <title>Layer 1</title>
  <path fill="#fff" stroke="#000" stroke-width="1.5" d="m137.30751,300.49249l0,-143.99995l0,0c0,-61.85172 71.49512,-112.00003 159.68745,-112.00003l0,0l0,0c42.35016,0 82.96841,11.80466 112.91522,32.80458c29.94708,21 46.76682,49.49233 46.76682,79.19545l0,15.99994l45.63052,0l-91.2554,64.00002l-91.24466,-64.00002l45.625,0l0,-15.99994c0,-26.50781 -30.64316,-48.0001 -68.4375,-48.0001l0,0l0,0c-37.79984,0 -68.43747,21.49229 -68.43747,48.0001l0,143.99995l-91.24997,0l-0.00002,0z" id="svg_1"/>
 </g>
 <g>
  <line stroke="#000" stroke-width="1.5" x1="61.5" y1="358.5" x2="106.59989" y2="313.40011" id="MP_mpt2_1_r"/>
  <line stroke="#000" stroke-width="1.5" x1="61.5" y1="358.5" x2="22.29541" y2="319.29541" id="MP_mpt2_1_u"/>
 </g>
</g>
  </g>
</svg>
