<?xml version="1.0"?>
<svg width="580" height="400" xmlns="http://www.w3.org/2000/svg">
 <!-- Created with Method Draw - http://github.com/duopixel/Method-Draw/ -->
 <g>
  <title>background</title>
  <rect fill="#fff" id="canvas_background" height="402" width="582" y="-1" x="-1"/>
  <g display="none" overflow="visible" y="0" x="0" height="100%" width="100%" id="canvasGrid">
   <rect fill="url(#gridpattern)" stroke-width="0" y="0" x="0" height="100%" width="100%"/>
  </g>
 </g>
 <g>
  <title>Layer 1</title>
  <path d="m113.5,208.590912c1,0 2,0 3,0c2,0 3,0 5,0c0,0 2,0 3,0c1,0 2,-1 5,-1c2,0 11.010971,-1.668869 16,-2c15.099518,-1.002197 23.058456,-2.437103 45,-5c14.046631,-1.640717 40.008301,-3.518097 54,-4c29.051666,-1.000595 43.021057,-2.752121 68,-5c10.00943,-0.900757 27,-3 30,-3l2,-1l1,0l1,0" id="svg_2" stroke-width="1.5" stroke="#000" fill="none"/>
  <path d="m325.5,159.590912c1,0 2.152252,-0.765366 4,0c1.306549,0.541199 2,1 3,2c1,1 4.705475,2.346191 7,4c1.813995,1.307449 4.152252,0.234634 6,1c1.306549,0.541199 2.292908,1.292892 3,2c0.707092,0.707108 1,1 2,1l1,0l0,0" id="svg_3" stroke-width="1.5" stroke="#000" fill="none"/>
  <path d="m335.5,207.590912c0,-1 2.486267,-0.823746 3,-3c0.229767,-0.973251 0.693451,-2.458801 2,-3c0.923889,-0.38269 1,-1 1,-1c0,0 0.292908,-0.292892 1,-1c0.707092,-0.707108 0.292908,-2.292892 1,-3c0.707092,-0.707108 1.292908,-0.292892 2,-1c0.707092,-0.707108 1.292908,-0.292892 2,-1c0.707092,-0.707108 1,-1 1,-2l1,0l0,-1l1,0" id="svg_5" stroke-width="1.5" stroke="#000" fill="none"/>
  <path d="m324.5,176.590912c1,0 1.693451,0.458801 3,1c0.923889,0.38269 1,1 2,1c1,0 2,1 2,1c1,0 2,0 3,0c1,0 1.292908,0.292892 2,1c0.707092,0.707108 2,0 3,0c1,0 2,0 2,0l0,0" id="svg_7" stroke-width="1.5" stroke="#000" fill="none"/>
  <path d="m350.5,163.590912c-1,-1 -2.292908,-1.292892 -3,-2c-0.707092,-0.707108 -1.292908,-0.292892 -2,-1c-0.707092,-0.707108 -1,-1 -1,-1c-1,0 -1.292908,-0.292892 -2,-1c-0.707092,-0.707108 -0.292908,-0.292892 -1,-1c-0.707092,-0.707108 -1,-1 -2,-1c-1,0 -1.076111,-0.61731 -2,-1c-1.306549,-0.541199 -2.292908,-0.292892 -3,-1c-0.707092,-0.707108 -0.693451,-1.458801 -2,-2c-0.923889,-0.38269 -1,-1 -1,-1c-1,0 -1.076111,-0.61731 -2,-1c-1.306549,-0.541199 -2,-1 -3,-1c-1,0 -1,-1 -2,-1c-1,0 -1,-1 -2,-1c-1,0 -1,-1 -1,-1c-1,0 -2.292908,0.707108 -3,0c-0.707092,-0.707108 -0.693451,-1.458801 -2,-2c-0.923889,-0.38269 -1.292908,-0.292892 -2,-1c-0.707092,-0.707108 -1.292908,-0.292892 -2,-1c-0.707092,-0.707108 -1.292908,0.707108 -2,0c-0.707092,-0.707108 -1.292908,-0.292892 -2,-1c-0.707092,-0.707108 -1.292908,-0.292892 -2,-1c-0.707092,-0.707108 -1,-1 -1,-1c-1,0 -1.292908,-1.292892 -2,-2c-0.707092,-0.707108 -1.292908,-0.292892 -2,-1c-0.707092,-0.707108 0.707092,-2.292892 0,-3c-0.707092,-0.707108 -0.61731,-1.076126 -1,-2c-0.541199,-1.306564 -1.458801,-0.693436 -2,-2c-0.38269,-0.923874 0,-2 0,-3c0,-1 0,-2 0,-3c0,-1 0,-2 0,-3c0,0 0,-1 1,-1c1,0 1.292908,-0.292892 2,-1c0.707092,-0.707108 0.693451,-1.458801 2,-2c0.923889,-0.382683 1,-1 2,-1c1,0 2.076111,-0.382683 3,0c1.306549,0.541199 1.292908,1.292892 2,2c0.707092,0.707108 -0.292908,1.292892 -1,2c-0.707092,0.707108 -1,1 -2,1c-1,0 -1.076111,0.617317 -2,1c-1.306549,0.541199 -1.292908,1.292892 -2,2c-0.707092,0.707108 -2,0 -2,0c-1,0 -1,1 -2,1c-1,0 -2,0 -3,0c-1,0 -2,0 -3,0c-1,0 -2,0 -2,-1c0,0 -1.292908,0.707108 -2,0c-0.707092,-0.707108 -0.693451,-1.458801 -2,-2c-0.923889,-0.382683 -2,-1 -3,-1c-1,0 -2,0 -3,-1c0,0 -1,-1 -2,-1c-1,0 -1.076111,-0.617317 -2,-1c-1.306549,-0.541199 -1.292908,-1.292892 -2,-2c-0.707092,-0.707108 -1.292908,-1.292892 -2,-2c-0.707092,-0.707108 -1.292908,-0.292892 -2,-1c-0.707092,-0.707108 0.707092,-1.292892 0,-2c-0.707092,-0.707108 -0.292908,-0.292892 -1,-1c-0.707092,-0.707108 -1,-1 -1,-2c0,-1 0,-2 0,-3c0,-1 -0.707092,-2.292892 0,-3c0.707092,-0.707108 2,0 2,0c1,0 2,0 3,0c1,0 2,0 3,0c1,0 1.292908,0.292892 2,1c0.707092,0.707108 1.458801,0.693436 2,2c0.38269,0.923882 0,1 0,2c0,1 0,2 0,3c0,1 0,1 0,2c0,0 -0.076111,0.617317 -1,1c-1.306549,0.541199 -1.292908,1.292892 -2,2c-0.707092,0.707108 -1,1 -2,1c-1,0 -1.076111,0.617317 -2,1c-1.306549,0.541199 -2,1 -3,1c0,0 -2.292908,0.292892 -3,1c-0.707092,0.707108 -1,1 -2,1c-1,0 -2.292908,-0.707108 -3,0c-0.707092,0.707108 -1,1 -2,1c0,0 -1,0 -1,0c-1,0 -2,0 -3,0c-1,0 -2,0 -3,0c-1,0 -2,0 -3,0c-1,0 -2,1 -3,1c-1,0 -2,0 -3,0c-1,0 -3,0 -4,0c-1,0 -2,0 -4,0c-1,0 -3.026749,0.229752 -4,0c-2.176254,-0.513741 -2.693436,-1.458801 -4,-2c-0.923874,-0.382683 -3.026749,-0.770248 -4,-1c-2.176254,-0.513741 -3,-2 -5,-3c0,0 -1.026749,-0.770248 -2,-1c-2.176254,-0.513741 -2.292892,-1.292892 -3,-2c-0.707108,-0.707108 -0.292892,-1.292892 -1,-2c-0.707108,-0.707108 -1.458801,0.306564 -2,-1c-0.38269,-0.923882 0,-2 0,-3c0,-1 -0.306564,-2.458801 1,-3c0.923874,-0.382683 1,-1 2,-1c1,0 2,0 3,0c1,0 2,0 2,0c1,0 2,0 3,0c1,0 1.458801,0.693436 2,2c0.38269,0.923882 0,2 0,3c0,1 0.707108,2.292892 0,3c-0.707108,0.707108 -1.076126,-0.382683 -2,0c-1.306564,0.541199 -1.292892,1.292892 -2,2c-0.707108,0.707108 -1,1 -1,1c-1,1 -2.292892,0.292892 -3,1c-0.707108,0.707108 -0.292892,1.292892 -1,2c-0.707108,0.707108 -1.076126,0.617317 -2,1c-1.306564,0.541199 -1.823746,2.486259 -4,3c-0.973251,0.229752 -2.769348,1.303215 -4,2c-3.587921,2.031448 -6,1 -9,3l-3,1" id="svg_8" stroke-width="1.5" stroke="#000" fill="none"/>
  <line stroke-linecap="undefined" stroke-linejoin="undefined" id="MP_flying-crash_1_u" y2="214.639661" x2="108.5" y1="173.59091" x1="108.5" stroke-width="1.5" stroke="#000" fill="none"/>
  <line stroke-linecap="undefined" stroke-linejoin="undefined" id="MP_flying-crash_1_r" y2="213" x2="133" y1="213" x1="109" stroke-width="1.5" stroke="#000" fill="none"/>
  <line stroke-linecap="undefined" stroke-linejoin="undefined" id="MP_flying-crash_2_u" y2="180.639661" x2="360.5" y1="139.59091" x1="360.5" stroke-width="1.5" stroke="#000" fill="none"/>
  <line stroke-linecap="undefined" stroke-linejoin="undefined" id="MP_flying-crash_2_r" y2="179" x2="385" y1="179" x1="361" stroke-width="1.5" stroke="#000" fill="none"/>
  <line stroke-linecap="undefined" stroke-linejoin="undefined" id="MP_flying-crash_3_u" y2="132.639661" x2="190.5" y1="91.59091" x1="190.5" stroke-width="1.5" stroke="#000" fill="none"/>
  <line stroke-linecap="undefined" stroke-linejoin="undefined" id="MP_flying-crash_3_r" y2="131" x2="215" y1="131" x1="191" stroke-width="1.5" stroke="#000" fill="none"/>
 </g>
</svg>