<svg width="580" height="400" xmlns="http://www.w3.org/2000/svg">
 <!-- Created with Method Draw - http://github.com/duopixel/Method-Draw/ -->

 <g>
  <title>background</title>
  <g display="none" overflow="visible" y="0" x="0" height="100%" width="100%" id="canvasGrid">
   <rect fill="url(#gridpattern)" stroke-width="0" y="0" x="0" height="100%" width="100%"/>
  </g>
 </g>
 <g>
  <title>Layer 1</title>
  <path stroke="#000" id="svg_1" d="m28.127502,63.099213l0,0c0,-22.046158 27.182484,-39.91671 60.724075,-39.91671l27.604897,0l0,0l132.500053,0l248.436417,0c16.108215,0 31.556091,4.204855 42.94281,11.691696c11.386719,7.485519 17.791748,17.638336 17.791748,28.225014l0,99.792374l0,0l0,59.874451l0,0c0,22.046082 -27.192383,39.917557 -60.734558,39.917557l-248.436417,0l-173.098618,101.498932l40.598564,-101.498932l-27.604897,0c-33.541592,0 -60.724075,-17.871475 -60.724075,-39.917557l0,0l0,-59.874451l0,0l0,-99.792374z" stroke-width="1.5" fill="#fff"/>
 </g>
 <g>
  <line stroke="#000" stroke-width="1.5" id="MP_1_u" y2="217.3" x2="66.5" y1="373.5" x1="66.5"/>
  <line stroke="#000" stroke-width="1.5" id="MP_1_r" y2="374.5" x2="125.5" y1="373.5" x1="66.5"/>
 </g>
</svg>